{"asset":{"version":"2.0","generator":"gltfpack 1.0","extras":{"author":"TheTime1337 (https://sketchfab.com/TheTime1337)","license":"CC-BY-4.0 (http://creativecommons.org/licenses/by/4.0/)","source":"https://sketchfab.com/3d-models/airplane-809c6b124b384fbcb9dd8a6f30661af3","title":"Airplane"}},"extensionsUsed":["KHR_mesh_quantization","EXT_meshopt_compression"],"extensionsRequired":["KHR_mesh_quantization","EXT_meshopt_compression"],"buffers":[{"uri":"scene.bin","byteLength":10752},{"byteLength":32364,"extensions":{"EXT_meshopt_compression":{"fallback":true}}}],"bufferViews":[{"buffer":1,"byteOffset":0,"byteLength":5884,"byteStride":4,"target":34962,"extensions":{"EXT_meshopt_compression":{"buffer":0,"byteOffset":0,"byteLength":2314,"byteStride":4,"mode":"ATTRIBUTES","filter":"OCTAHEDRAL","count":1471}}},{"buffer":1,"byteOffset":5884,"byteLength":11768,"byteStride":8,"target":34962,"extensions":{"EXT_meshopt_compression":{"buffer":0,"byteOffset":2316,"byteLength":5784,"byteStride":8,"mode":"ATTRIBUTES","count":1471}}},{"buffer":1,"byteOffset":17652,"byteLength":14712,"target":34963,"extensions":{"EXT_meshopt_compression":{"buffer":0,"byteOffset":8100,"byteLength":2650,"byteStride":2,"mode":"TRIANGLES","count":7356}}}],"accessors":[{"bufferView":0,"byteOffset":0,"componentType":5120,"count":1471,"type":"VEC3","normalized":true},{"bufferView":1,"byteOffset":0,"componentType":5123,"count":1471,"type":"VEC3","min":[0,0,0],"max":[16383,3241,13919]},{"bufferView":2,"byteOffset":0,"componentType":5123,"count":7356,"type":"SCALAR"}],"materials":[{"name":"Scene_-_Root","pbrMetallicRoughness":{"metallicFactor":0,"roughnessFactor":0.600000024},"doubleSided":true}],"meshes":[{"primitives":[{"attributes":{"NORMAL":0,"POSITION":1},"indices":2,"material":0}]}],"nodes":[{"mesh":0,"translation":[139.061005,-17.7411995,-1319.94995],"scale":[0.0925269499,0.0925269499,0.0925269499]}],"scenes":[{"name":"Sketchfab_Scene","nodes":[0]}],"scene":0}